<svg xmlns="http://www.w3.org/2000/svg" xmlns:xlink="http://www.w3.org/1999/xlink" width="529" height="338" viewBox="0 0 529 338">
  <defs>
    <clipPath id="clip-path">
      <rect id="Rectangle_3" data-name="Rectangle 3" width="529" height="338" rx="68" transform="translate(61 707)" fill="#fff" stroke="#707070" stroke-width="1"/>
    </clipPath>
  </defs>
  <g id="card-discover" transform="translate(-61 -707)" clip-path="url(#clip-path)">
    <g id="discover-svgrepo-com" transform="translate(62.386 707)">
      <path id="Path_1" data-name="Path 1" d="M37.1,0A37.109,37.109,0,0,0,0,37.108V300.892A37.1,37.1,0,0,0,37.1,338H489.127a37.109,37.109,0,0,0,37.1-37.108V37.108A37.1,37.1,0,0,0,489.127,0Z" fill="#4d4d4d" fill-rule="evenodd"/>
      <path id="Path_2" data-name="Path 2" d="M220.713,109.221a37.15,37.15,0,0,1,17.047,4.109v15.349c-5.764-5.3-10.764-7.525-17.376-7.525a22.888,22.888,0,0,0-23.217,22.972c0,13.544,9.9,23.07,23.862,23.07,6.282,0,11.19-2.1,16.731-7.325v15.357a40.294,40.294,0,0,1-17.376,3.9c-21.1,0-37.5-15.244-37.5-34.9,0-19.447,16.833-35,37.828-35Zm-65.517.423a32.222,32.222,0,0,1,20.876,7.417L168.821,126c-3.609-3.809-7.023-5.416-11.175-5.416-5.973,0-10.322,3.2-10.322,7.414,0,3.612,2.442,5.524,10.757,8.421,15.763,5.427,20.435,10.238,20.435,20.864,0,12.949-10.1,21.962-24.5,21.962-10.545,0-18.212-3.91-24.6-12.732l8.951-8.116a16.513,16.513,0,0,0,15.126,8.92c6.182,0,10.759-4.016,10.759-9.434a7.919,7.919,0,0,0-4.155-6.921,57.2,57.2,0,0,0-9.58-3.81c-13.015-4.411-17.48-9.126-17.48-18.34C133.036,117.865,142.626,109.644,155.2,109.644Zm158.356,1.166h15.137l18.947,44.926,19.191-44.926H381.85l-30.693,68.6H343.7l-30.148-68.6Zm-268.071.1H65.822c22.474,0,38.141,13.751,38.141,33.49a32.829,32.829,0,0,1-12.9,25.675c-6.819,5.33-14.59,7.721-25.349,7.721H45.481V110.913Zm64.858,0H124.2V177.8H110.338Zm277.777,0h39.3v11.334H401.964v14.846h24.514V148.42H401.964v18.055h25.452V177.8h-39.3V110.913Zm48.479,0h20.547c15.982,0,25.141,7.226,25.141,19.748,0,10.241-5.744,16.961-16.182,18.961L488.463,177.8H471.421l-19.18-26.87h-1.807V177.8h-13.84Zm13.84,10.535V141.7h4.049c8.849,0,13.54-3.617,13.54-10.341,0-6.509-4.691-9.915-13.321-9.915h-4.268Zm-391.106.8v44.229h3.719c8.955,0,14.61-1.615,18.964-5.316a22.343,22.343,0,0,0,7.675-16.853,21.937,21.937,0,0,0-7.675-16.651c-4.577-3.9-10.01-5.409-18.964-5.409H59.329Z" fill="#fff" fill-rule="evenodd"/>
      <path id="Path_3" data-name="Path 3" d="M280.068,108.76c20.874,0,37.8,15.908,37.8,35.56v.022c0,19.653-16.921,35.582-37.795,35.582s-37.8-15.931-37.8-35.582v-.022c0-19.653,16.922-35.561,37.8-35.561Zm246.146,85.782c-17.575,12.366-149.152,100.752-376.961,143.444H489.115a37.109,37.109,0,0,0,37.1-37.108V194.54Z" fill="#f47216" fill-rule="evenodd"/>
    </g>
  </g>
</svg>
