<svg xmlns="http://www.w3.org/2000/svg" xmlns:xlink="http://www.w3.org/1999/xlink" width="529" height="338" viewBox="0 0 529 338">
  <defs>
    <clipPath id="clip-path">
      <rect id="Rectangle_4" data-name="Rectangle 4" width="529" height="338" rx="68" transform="translate(628 707)" fill="#fff" stroke="#707070" stroke-width="1"/>
    </clipPath>
  </defs>
  <g id="card-visa" transform="translate(-628 -707)" clip-path="url(#clip-path)">
    <g id="visa-svgrepo-com" transform="translate(628.86 707)">
      <rect id="Rectangle_6" data-name="Rectangle 6" width="527.28" height="338" fill="#0e4595"/>
      <path id="Path_4" data-name="Path 4" d="M198.2,235.741l22.552-132.334h36.071L234.258,235.741ZM364.574,106.26a93.156,93.156,0,0,0-32.328-5.558c-35.642,0-60.749,17.948-60.962,43.672-.2,19.016,17.923,29.624,31.6,35.954,14.041,6.486,18.76,10.623,18.694,16.415-.089,8.87-11.212,12.922-21.579,12.922-14.437,0-22.107-2.006-33.953-6.947l-4.648-2.1-5.063,29.624c8.425,3.694,24,6.894,40.18,7.059,37.917,0,62.53-17.742,62.811-45.212.134-15.054-9.475-26.51-30.285-35.955-12.607-6.121-20.329-10.207-20.247-16.405,0-5.5,6.536-11.383,20.657-11.383a66.569,66.569,0,0,1,27,5.07l3.232,1.528,4.889-28.682m92.822-2.855H429.522c-8.635,0-15.1,2.357-18.888,10.974L357.065,235.654h37.877s6.192-16.307,7.593-19.887c4.141,0,40.935.057,46.2.057,1.079,4.633,4.387,19.83,4.387,19.83H486.59L457.4,103.4Zm-44.223,85.453c2.982-7.625,14.372-36.993,14.372-36.993-.214.353,2.96-7.662,4.782-12.63l2.437,11.41s6.908,31.589,8.351,38.213ZM167.582,103.406l-35.314,90.246-3.763-18.34c-6.574-21.141-27.057-44.045-49.955-55.512l32.29,115.731L149,235.488,205.79,103.4H167.582" fill="#fff"/>
      <path id="Path_5" data-name="Path 5" d="M99.318,103.4H41.154l-.46,2.753c45.25,10.954,75.191,37.425,87.623,69.229l-12.648-60.813c-2.183-8.379-8.516-10.88-16.35-11.172" fill="#f2ae14"/>
    </g>
  </g>
</svg>
