<svg xmlns="http://www.w3.org/2000/svg" xmlns:xlink="http://www.w3.org/1999/xlink" width="384" height="104.001" viewBox="0 0 384 104.001">
  <defs>
    <filter id="Subtraction_1" x="0" y="0" width="384" height="104.001" filterUnits="userSpaceOnUse">
      <feOffset dx="5" dy="5" input="SourceAlpha"/>
      <feGaussianBlur stdDeviation="1" result="blur"/>
      <feFlood flood-opacity="0.161"/>
      <feComposite operator="in" in2="blur"/>
      <feComposite in="SourceGraphic"/>
    </filter>
  </defs>
  <g transform="matrix(1, 0, 0, 1, 0, 0)" filter="url(#Subtraction_1)">
    <path id="Subtraction_1-2" data-name="Subtraction 1" d="M376,96H0V0H376V96ZM228.058,36.524c-4.225,0-7.616,1.354-10.077,4.023s-3.712,6.3-3.712,10.781a14.481,14.481,0,0,0,3.643,10.215,12.649,12.649,0,0,0,9.7,3.926,12.858,12.858,0,0,0,9.864-3.984c2.449-2.643,3.691-6.29,3.691-10.84a14.532,14.532,0,0,0-3.6-10.215A12.367,12.367,0,0,0,228.058,36.524Zm-159.121,0c-4.225,0-7.616,1.354-10.078,4.023s-3.711,6.3-3.711,10.781a14.484,14.484,0,0,0,3.642,10.215,12.653,12.653,0,0,0,9.7,3.926,12.854,12.854,0,0,0,9.863-3.984c2.45-2.643,3.692-6.29,3.692-10.84a14.532,14.532,0,0,0-3.6-10.215A12.367,12.367,0,0,0,68.937,36.524Zm265.625.468V65h4.648V53.281h9.649V49.355h-9.649V40.937H349.68V36.992Zm-22.637,5.684H312a13.456,13.456,0,0,0,.41,2.734L317.746,65H323l7.676-28.008h-4.805l-4.981,20.587a15.416,15.416,0,0,0-.449,2.578h-.078a16.147,16.147,0,0,0-.41-2.5l-5.312-20.664h-4.785L304.114,57.5a15.32,15.32,0,0,0-.547,2.7h-.1a14.889,14.889,0,0,0-.391-2.7L298,36.992h-5.1L300.734,65h5.371l5.351-19.629a13.291,13.291,0,0,0,.469-2.694Zm-38.632,0h.078a13.467,13.467,0,0,0,.41,2.734L279.113,65h5.254l7.675-28.008h-4.8l-4.981,20.587a15.315,15.315,0,0,0-.449,2.578h-.078a16.166,16.166,0,0,0-.41-2.5l-5.313-20.664h-4.785L265.48,57.5a15.4,15.4,0,0,0-.546,2.7h-.1a14.977,14.977,0,0,0-.391-2.7l-5.078-20.508h-5.1L262.1,65h5.371l5.351-19.629a13.3,13.3,0,0,0,.469-2.694ZM192.9,36.992v3.946h8.027V65h4.648V40.937h8.047V36.992Zm-28.946,0V65H179.68V61.074H168.605V52.793h9.629V48.867h-9.629v-7.93h10.45V36.992Zm-24.824,0v3.946h8.027V65h4.649V40.937h8.047V36.992ZM122.238,57.871h11.016L135.773,65h5.1L130.461,36.992h-5.234L114.738,65h5.078l2.422-7.128ZM91.516,42.793h.117a9.192,9.192,0,0,0,.84,1.621L105.852,65h5.078V36.992h-4.472V55.04a24.984,24.984,0,0,0,.2,3.769h-.078c-.158-.315-.512-.893-1.055-1.719L92.59,36.992H87.179V65h4.493V46.641a28.947,28.947,0,0,0-.156-3.846Zm-63.262-5.8V65h7.754c4.8,0,8.673-1.324,11.523-3.936a13.51,13.51,0,0,0,4.3-10.419c0-4.53-1.3-7.975-3.872-10.24s-6.478-3.413-11.616-3.413ZM227.629,61.406a7.589,7.589,0,0,1-6.133-2.851,11.521,11.521,0,0,1-2.344-7.519,11.41,11.41,0,0,1,2.412-7.559,7.824,7.824,0,0,1,6.26-2.871,7.66,7.66,0,0,1,6.221,2.734c1.5,1.815,2.255,4.424,2.255,7.754,0,3.241-.782,5.8-2.324,7.6A7.953,7.953,0,0,1,227.629,61.406Zm-159.121,0a7.589,7.589,0,0,1-6.133-2.851,11.517,11.517,0,0,1-2.344-7.519,11.41,11.41,0,0,1,2.413-7.559A7.824,7.824,0,0,1,68.7,40.605a7.66,7.66,0,0,1,6.221,2.734c1.5,1.815,2.255,4.424,2.255,7.754,0,3.24-.782,5.8-2.324,7.6A7.952,7.952,0,0,1,68.508,61.406Zm-31.914-.332H32.882V40.937H36.77c3.376,0,5.944.826,7.632,2.456s2.544,4.109,2.544,7.368-.917,5.829-2.724,7.617S39.847,61.074,36.594,61.074Zm95.43-6.992h-8.574L127.3,42.91a11.478,11.478,0,0,0,.391-1.758h.078a13.212,13.212,0,0,0,.371,1.758l3.887,11.17Z" transform="translate(0 0)" fill="#f90"/>
  </g>
</svg>
