<svg xmlns="http://www.w3.org/2000/svg" width="1919.585" height="243.314" viewBox="0 0 1919.585 243.314">
  <g id="_159804" data-name="159804" transform="translate(0 440.314)">
    <path id="Path_1" data-name="Path 1" d="M1793.162-421.3c-1.2,29.2-4.349,62.3-5.849,61.7a3.228,3.228,0,0,1-1.2-2.6c0-3.8-6.149-16.1-12.147-24.3-6.449-9-18.3-19.4-29.094-25.7l-7.2-4.3,5.4,5.1c7.8,7.2,15.147,18.3,15.147,22.4a79.337,79.337,0,0,1-3,13c-2.1,7.5-4.049,11-9.148,16.5-7.2,7.7-16.8,23.3-21,34l-2.7,7-.45-6.9c-.45-6.2-.15-7.1,3.449-9.5,4.8-3.4,4.8-4.3-.15-3a21.654,21.654,0,0,1-4.349.7c-.3-.2-1.2-8.9-2.25-19.3-1.8-18.9-1.8-19.1,2.7-39,2.549-11,4.349-20.1,4.2-20.2-.9-.6-14.4,13.9-15.6,16.8-.75,2.1-.9,8.2,0,15.5,1.349,13.4-.3,36.8-2.849,38.5-1.2.8-1.35-.4-.9-3.8.45-3.6.3-4.4-.9-3.3a5.245,5.245,0,0,0-1.65,3.2c0,3.3-2.549,1.8-4.349-2.5-2.849-6.5-13.347-20.1-17.546-22.8a32.493,32.493,0,0,0-8.548-3.4c-4.049-.8-4.949-1.7-6.149-5.4-.9-2.8-.9-4.9.15-6,1.2-1.3,1.05-1.7-1.2-1.7-1.65,0-2.849.4-2.849.9,0,.4-4.5,3.8-9.9,7.3-8.548,5.6-10.948,6.7-17.1,7.3-10.2,1.1-13.647,2.9-21.9,11.7l-7.348,7.7-.9-7.9c-1.65-13.8-3-19.8-4.349-18.3-.9.8-1.35-.5-1.2-3.6,0-2.8-.9-6.6-2.25-8.5l-2.25-3.5-.3,6c-.9,26.9-2.7,48.7-4.049,49.6-1.05.7-1.8,0-2.4-2.3-.45-1.8-2.25-8.8-4.2-15.5l-3.3-12.3,4.2-18.7c6.6-30.4,6.9-28.1-2.849-18.4l-8.4,8.3v8.4c0,4.6-.6,8.4-1.35,8.4s-3.149-1.9-5.249-4.3c-3.6-4-10.8-10.3-9.448-8.2.3.5,2.4,3.5,4.5,6.5a57.636,57.636,0,0,1,4.349,7c.15.9-2.849,4.2-6.9,7.3l-7.348,5.7-3.449-3.4c-4.049-4-9-5.2-23.845-6l-10.5-.6,9.448,1.9c11.7,2.3,14.7,4.1,17.7,10.6,2.4,5.1,2.4,5.4-.45,8.1a105.326,105.326,0,0,0-8.7,10.4l-5.7,7.5-1.35-3.5c-2.849-7-4.2-5.5-4.2,4.5,0,9.9-4.5,24-6.449,20.5-.45-.8-1.2-16.8-1.5-35.5-.6-24-1.5-36.8-3.149-43.5-4.2-17.1-4.8-16.8-5.849,2-1.5,23.7-4.049,54.9-4.949,57.9-1.05,3.2-2.55,1.7-6.749-6.9-8.1-16.3-25.495-33.8-40.791-41.2-4.049-1.9-3.9-1.7,1.35,2.8a86.978,86.978,0,0,1,10.048,11.2l4.349,6.3-3,6.2a62.241,62.241,0,0,0-4.049,11.1l-1.2,4.9-2.1-2.6a6.608,6.608,0,0,0-5.249-2.7c-1.8,0-2.7.3-2.249.7.6.4-.75,1.9-3,3.5-2.25,1.5-3.3,2.8-2.4,2.8a10.516,10.516,0,0,0,4.2-2c2.1-1.6,3-1.7,4.049-.8,2.7,3,1.05,7.1-5.549,13.3-7.049,6.6-20.246,24.1-20.246,26.9a1.5,1.5,0,0,1-1.5,1.6c-.9,0-1.5-4.5-1.5-11.5,0-17.4,6.448-28.8,18-31.9,3.3-.9,6-1.7,6-1.9s-3.149,0-7.048.4c-4.049.4-7.948.8-9,.8a23.263,23.263,0,0,0-6.149,2.6l-4.349,2.4-2.4-7.8c-1.35-4.3-3.3-9.3-4.5-11.2-2.249-3.2-2.249-2.5-2.4,12.6-.15,16.1-.9,20.5-3.3,20.5-.75,0-1.35-1-1.35-2.3-.15-1.2-1.949-5.4-4.349-9.3l-4.049-7,2.4-6a77.325,77.325,0,0,1,6.6-11.4l4.049-5.5-3.9,3a78.578,78.578,0,0,0-8.848,8.7l-4.8,5.8-3.6-3.2c-4.049-3.7-4.049-2.9-.15-20.3,1.5-7.2,2.7-13.1,2.55-13.3-.3-.1-3.9,3.3-8.248,7.6-5.1,5.3-7.648,8.8-7.648,11,0,1.8-.6,3.2-1.5,3.2a1.693,1.693,0,0,1-1.5-1.7c0-.9-.45-1.3-1.05-1-.45.4-2.25-.1-3.9-1-3-1.8-3-1.8-.3,1,2.1,2.2,2.4,3.4,1.2,6.5a10.534,10.534,0,0,0-.3,6.4c1.05,2.7-.75,4.1-2.1,1.5-.6-1.2-1.5,3.2-3.449,16.7l-1.05,6.8-5.549-7.2c-7.2-9-9.6-10.8-15.9-11.6a21.123,21.123,0,0,1-5.849-1.3c-.3-.4,1.35-3.6,3.9-7.1,4.349-6.2,2.1-6.9-2.549-.7-3.749,4.7-3.749,2.6,0-5.3,4.949-10.5,10.048-17.7,16.5-23.4,5.7-4.8,5.7-4.9,1.2-2.7-10.5,4.9-26.094,18.9-33.593,29.9l-4.5,6.5-5.249-3.5-5.249-3.6-1.35-14.3c-.6-7.9-1.2-20.7-1.2-28.3-.15-8.9-.6-13.7-1.65-13-4.8,3.2-10.048,56.4-8.4,85.4.45,8.8.3,13.5-.45,12-.75-1.4-3.149-6.5-5.4-11.5a190.08,190.08,0,0,0-9.9-18c-3.149-4.9-5.849-9.4-5.849-10,0-.5,2.1-2.4,4.8-4.2s4.049-3.3,3.3-3.3c-.9,0-3.449,1.4-5.849,3l-4.349,3.1-2.7-2.3c-1.5-1.3-2.7-2.8-2.7-3.4s-.9-1.7-2.1-2.3c-1.05-.6-2.4-3.2-2.849-5.7-.9-5.7-4.2-8.4-7.8-6.4-3,1.6-5.249.4-7.8-4.3-.9-1.8-1.8-2.4-1.8-1.5a1.9,1.9,0,0,1-3.449,1,36.561,36.561,0,0,0-5.7-3.7c-5.4-3.1-5.249-3,3.6,4.8l5.4,4.9v12c0,11.7-.15,12-2.7,10.5-4.349-2.7-5.7-2-1.65.9,1.95,1.4,3.6,3.7,3.6,5.1.15,2.1-.15,2.2-1.65.9a5.371,5.371,0,0,0-2.4-1.6c-.3,0-.15,3.2.45,7.2,1.8,10.4-.3,11.5-5.1,2.7-4.349-8.1-3.9-9.2,4.049-10.9,3.749-.8,3-.9-5.1-.6a82.637,82.637,0,0,0-12.147,1.1c-2.1.5-2.7-.3-3.449-4.2-1.35-6.1-5.549-16.2-6.9-16.8-.6-.3-1.2,6.1-1.35,14.1-.15,8.3-1.05,15.6-1.95,17-1.65,2.4-1.8,2.3-4.2-2.9a80.8,80.8,0,0,0-8.1-12.6l-5.549-7.3,3.9-4.1c2.1-2.3,4.949-5.3,6.3-6.7,1.5-1.4-.45-.7-4.349,1.8l-6.749,4.3-1.8-4.8c-5.4-14.4-13.5-17.9-13.647-5.9v2.9l-3.3-2c-6.6-3.9-7.348-3.5-2.25,1,4.649,4,5.249,5.3,6,12.7.6,6.4.3,9-1.5,11.6-2.849,3.9-4.2,3.7-5.549-1.1-2.1-7.2-3.9-4.6-3.9,5.7,0,5.7-.9,12.3-2.1,14.7l-1.95,4.5-.9-5.5c-1.8-9.5-1.2-26.4.9-27.8,1.5-1.1,1.5-1.3,0-.7-1.35.5-1.95-.1-1.95-2,0-3.5-1.95-2.2-4.349,2.7-3,6.3-14.7,12.1-15.3,7.6-.15-.7-4.649-3.9-10.048-7.2s-9.3-5.5-8.848-4.9,3.3,3.5,6.3,6.4c5.249,5.2,5.249,5.3,2.25,6.7-1.65.8-3,2.3-3,3.4s-1.05,1.9-2.549,2c-1.65,0-1.95.3-.75.6,2.1.5,2.549,9.9.45,10.7-.75.3-1.65-2.1-2.25-5.4-1.05-6.4-4.949-16-6.9-17.4-.75-.4-.9,2.9-.6,7.5.75,8.4.75,8.4-2.1,6.4-2.4-1.6-3.3-4-4.049-12l-1.05-10,5.549-5.5,5.7-5.5-5.549,3.4-5.4,3.5V-383c0-10.9-2.1-9.5-5.249,3.5-2.25,9.4-3.3,11-10.648,17.4-.3.2-1.8-.2-3.149-1-2.4-1.2-2.549-1.2-.9.2,1.65,1.3.6,2.3-6.3,6.2-7.948,4.6-9.9,5.4-9.6,3.9a92.019,92.019,0,0,0,0-9.7c-.15-6.3-.75-8.5-1.65-7.4-1.65,1.9-5.249,12.2-6.749,19.2l-.9,4.8-9-6.5a171.178,171.178,0,0,0-15-9.7l-6-3.2,7.2,6.4a121.449,121.449,0,0,1,12.6,13.4l5.4,7-4.8,5.2-4.8,5.3-3.449-4.1a103.281,103.281,0,0,0-10.5-10.4c-7.049-6.2-7.049-6.3-8.1-16.1-.6-5.4-1.35-11.4-1.95-13.2-.75-3-.45-3.3,4.949-4.8a78.251,78.251,0,0,1,10.648-2.1c2.7-.3,5.4-.9,5.7-1.3s-2.25-.4-5.7.1c-3.449.4-8.848.8-11.847.9-4.949,0-5.7-.3-5.7-2.3a13.309,13.309,0,0,0-2.25-5.2c-1.95-2.9-1.95-2.9-2.1,3.1-.15,5.9-.3,6.1-3.749,5.7-2.7-.4-4.349.3-6.9,2.7-1.8,1.7-3,3.3-2.549,3.6.3.2,1.8-.7,3.149-2.2,4.5-4.4,4.349-1.9-.15,3.5-2.25,2.8-4.949,5.1-6,5.1s-1.5.6-1.05,1.3c.45.8-.6,3.5-2.4,6.1-2.849,4.4-3.3,4.8-7.049,4.1-4.049-.6-4.049-.6-1.35,1.3,2.25,1.7,2.4,2.4.9,4.3-1.8,2.1-1.95,2.1-3.449.4-.75-1-1.5-5.1-1.35-8.9l.15-7.1-2.7,5.4c-1.5,3-3.149,5-3.6,4.5-1.95-2.3-4.2-26.9-3.749-43.2l.45-17.7-6.449-6.3a77.021,77.021,0,0,1-7.8-8.5c-1.2-2.1-1.35-2.1-1.35-.2-.15,1.1,1.05,7.5,2.4,14.3,1.95,9.6,2.1,12.7.75,14-8.248,7.8-9.9,10.7-10.2,17.5-.45,9.2-2.549,10.5-5.7,3.3-1.35-3.1-2.7-5.6-3-5.6s-.3,3.5.15,7.8c.6,6.1.3,8-1.35,9-1.95,1-2.7.8-4.8-1.2-2.4-2.5-7.948-3.9-19.046-5.1L910.6-376l-1.05-17.6c-.6-9.6-1.35-17.3-1.65-17.1-2.1,1.3-5.249,17.7-6.749,34.2-.9,10.4-1.95,19.2-2.249,19.4-.45.3-4.649,0-9.6-.5-10.8-1.2-10.2-.4,1.2,1.6l8.548,1.5.45,13.9c.3,13-.45,16.6-4.049,16.6-.6,0-2.7-3.3-4.5-7.3-3.6-7.4-13.347-21.1-18.446-25.9l-2.849-2.8,5.4-7.1c5.849-7.8,12.6-14.8,16.346-16.8,1.35-.8,2.4-1.8,2.4-2.4,0-1.3-14.1,7.5-23.095,14.5l-7.348,5.7-6.449-5.2a133.922,133.922,0,0,0-14.4-9.7l-7.8-4.5,6.149,5.5a126.2,126.2,0,0,1,11.547,12.1l5.4,6.6-7.2,9.4a151.266,151.266,0,0,0-9.148,12.8c-1.35,2.7-2.1,3.2-3.449,2.3-1.5-1-1.35-1.7.15-3.5,1.95-2,1.95-2.1-.45-.8-2.1,1.2-2.849,1.1-4.649-.5-3.3-2.8-3.449-4.1-4.349-27.4-.75-20.3-3.9-40.5-6.9-44-.9-.9-1.5,2.1-1.5,8.4,0,11.1-3,48.9-3.9,49.5-.3.2-1.95-.4-3.6-1.4s-3-1.4-3-.8c0,.5,1.35,1.8,3,2.8,2.549,1.5,3,3,2.849,9.4a48.65,48.65,0,0,1-1.35,10.6c-1.05,2.7-1.2,2.5-1.35-1.8,0-2.6-.75-4.7-1.5-4.7s-2.1-2.3-3.149-5.1-4.8-8.8-8.4-13.5l-6.449-8.4,3.9-1.9a32.222,32.222,0,0,1,8.848-2.7c2.849-.3,5.549-1.1,6.149-1.7.45-.5.3-.7-.6-.4a102.3,102.3,0,0,1-11.547,1.7l-10.2,1.1L778.781-380c-6.149-4.4-12-8-12.9-8s-.15,1,1.5,2.2c3.749,2.7,13.947,13.9,13.947,15.2,0,.6-1.35,0-3-1.2-6.449-4.6-8.7-2.2-11.4,13-1.8,9.3-3.449,13.8-6.749,18.4-2.4,3.3-4.349,6.6-4.349,7.2a2.234,2.234,0,0,1-1.5,1.7c-3.6,1.5-9-12.4-6.9-17.9.45-1.3,3.749-4.8,7.2-7.8,6-5.1,4.949-5.1-3.6,0l-4.049,2.4-1.05-3.6c-1.2-4.3-.15-11.2,3-21.1,3-9.3,3.149-28.4.3-31.1-2.25-1.9-2.25-1.9-4.5.1-1.2,1.1-3.6,5.1-5.249,9-2.7,6.3-3,8.8-2.1,25.6.45,10.2.45,20.7-.15,23.3l-1.2,4.8-5.849-3.8a41.722,41.722,0,0,1-9.6-9.1c-9.3-13.6-13.347-15.5-33.743-16.6l-9.748-.5,7.5,1.4c11.548,2.3,13.947,3.1,16.646,5.9,2.549,2.6,2.549,2.6-5.1,7.5A92.315,92.315,0,0,0,684-353.9l-4.649,4.2v-4.8c0-4.2.75-5.5,6.149-9.7,6.9-5.5,7.348-7.5.6-2.8-5.1,3.6-6.749,3.8-6.9.7-.15-1.6-.6-1.2-1.95,1.5-2.25,5.1-4.649,6.5-7.648,4.8-3.449-1.9-7.048.8-8.4,6.2l-.9,4.3-.3-5.5c-.3-5.2-.3-5.4-2.249-3-1.2,1.4-2.849,5.2-3.9,8.5s-2.1,6.6-2.4,7.3c-.45,1-2.549.4-7.048-2l-6.3-3.3,5.549,4.4c3.149,2.5,5.7,4.8,5.7,5.2s-2.25,3.8-4.949,7.6c-2.849,3.7-6,8.4-7.348,10.3l-2.25,3.4-3.749-4.4c-3.749-4.4-3.9-5.2-4.8-28-.75-21.2-3.149-37.2-6.6-45.5-.9-2.1-1.65,3.4-2.4,17.5-.9,18.1-3.3,36.8-4.8,37.9-1.05.8-21.445-12-27.594-17.3-6-5.3-6.149-5.7-4.5-9.1,2.1-4.3,6.3-6.2,18.446-8.6l9.3-1.8-9.748.5c-14.7.9-20.4,2.1-24.595,5.4-1.95,1.7-4.2,2.6-4.649,2a13.819,13.819,0,0,0-4.2-2.1c-3.149-1.1-3.149-1.1.3,1.5l3.6,2.6-5.549,7.9a100.74,100.74,0,0,0-8.248,14.3l-2.7,6.3-1.8-4.3c-1.65-3.7-1.5-4.7.45-6.1,3.449-2.5,3-3.8-.45-1.7-2.849,1.7-2.849,1.6-3.9-4.9-.6-3.7-.75-14.4-.15-23.9l1.05-17.1-4.949-5.4c-2.7-2.9-6.449-7-8.248-9-3-3.2-3.449-3.3-3.449-1.3,0,1.3,1.65,9.6,3.749,18.5,4.5,20,4.8,23,3.149,39.2-1.2,12.3-1.5,13.2-5.849,17.3-4.049,3.7-4.949,4.1-5.849,2.5-.6-1-3.749-6-7.048-11.1-5.549-8.6-6-9.9-5.249-15.5l.9-6.2-3.3,3.5-3.3,3.4-3.6-2.9c-1.95-1.7-3.6-3.3-3.6-3.6,0-1.6-8.4-4-15.447-4.5-6.6-.4-7.2-.3-4.049.6,12.447,3.6,16.346,11,17.246,32.4a196.5,196.5,0,0,1-.3,25.5c-.9,9-1.2,9.6-5.849,13-7.648,5.4-8.4,3.6-7.348-14.9.45-8.5,1.2-18.4,1.8-22,.75-6.1.6-6.4-1.65-4.5l-2.4,2,.9-2c.75-1.9.75-1.9-1.35-.3-1.95,1.7-5.4,11.2-8.1,22.3-1.05,4.7-1.2,4.5-2.1-5-1.35-13.6-1.65-44-.3-44.8.45-.4,2.7.3,4.649,1.5l3.749,2.3-1.8-2.2a10.732,10.732,0,0,0-3.3-2.9c-1.2-.4-1.05-.9.3-1.5q2.25-.9-1.8-.9c-4.8,0-7.048,1.6-8.248,6.1-.6,2.2-3.749,5.4-8.7,8.9-13.8,9.7-21.3,18.1-28.794,31.8l-3.6,6.7.6-12c.75-14.6,4.2-25.9,10.048-33.8,2.549-3.2,4.2-6.1,3.9-6.4-1.2-.7-9.748,8.1-15.3,15.9a53.6,53.6,0,0,1-5.4,6.8c-.15-.3-1.05-10.2-1.95-22-1.65-20.2-1.8-21.2-3.449-16.4-4.049,11.4-6,27.2-6.449,51.4-.3,14.3-.6,16.3-1.65,11-.6-3.6-1.2-15.7-1.2-26.9s-.3-20.6-.75-20.9c-1.35-.8-4.2,5-4.949,9.9-.75,4.5-.75,4.5-7.048,4.7-9.9.4-15.747,2.1-19.5,5.8L367.87-348l-3-2.3c-4.349-3.1-6.9-17-4.049-20.9,2.7-3.5,2.549-4.8-.15-2.4-1.95,1.7-2.1,1.5-3.149-2a10.692,10.692,0,0,0-3.3-5.7c-2.25-1.6-2.4-1.6-5.549.3l-3.3,2.1-5.7-5.8c-3.149-3.2-6.749-6.9-7.8-8.3-1.95-2.5-1.95-2.5-1.95-.2a142.576,142.576,0,0,0,3.149,15.8c1.65,7.5,2.849,13.8,2.4,14-.3.3-2.849-.7-5.4-2.1-3.6-2.1-4.649-3.5-4.8-6.3l-.15-3.7-1.95,3.1a17.539,17.539,0,0,1-4.349,4.3c-2.1,1.1-2.4,1.1-2.4-.5a12.942,12.942,0,0,0-2.249-4.9c-2.1-2.9-2.1-2.8-1.35,3.1l.9,6.1-8.4,5.3c-4.649,2.9-8.4,5.9-8.4,6.8s-.9,1.2-2.7.7a104.513,104.513,0,0,0-10.8-1.6c-4.5-.5-8.4-1.3-8.7-1.9-.6-1.2-1.95-2.1-10.348-7.2-3.449-2-6.449-4.5-6.749-5.5-.45-1.3-1.2-.8-2.25,1.7l-1.35,3.5-1.8-4.5c-3.449-8.6-4.8-8.1-4.8,2l-.15,9.5-5.1,1.6c-5.1,1.6-5.249,1.6-5.249-.5,0-1.9-.3-1.8-3,.9l-2.849,2.9-2.4-3.7c-1.2-2-2.25-4.2-2.25-4.9,0-2.3-4.8-14.3-6.149-15.3-.9-.5-1.05,1-.45,3.8.6,2.6.6,4.7.3,4.7-1.35,0-8.7-7.9-8.7-9.4,0-.8-3.149-4.5-6.9-8.3-3.749-3.7-7.5-7.7-8.1-8.8-2.4-3.8-1.65,3.4,2.1,18.3,3.149,13.5,3.3,14.3.75,13.9-2.4-.4-2.4-.2.45,2.3,2.849,2.7,3,3.7,2.1,15.7-.45,7-.9,15.8-.75,19.5.15,13.9-4.2,4.4-6.149-13.2-2.25-21.4-2.849-22.4-13.347-24.5l-3.749-.8,4.049,3.2c4.049,3.2,4.049,3.4,4.049,18.2,0,9.3-.6,14.9-1.5,14.9a1.4,1.4,0,0,1-1.5-1.2c0-.6-3.749-5.5-8.248-10.9-4.5-5.3-8.248-10.8-8.248-12.1,0-1.4-1.35-5.9-2.849-10.1l-3-7.6,3.9-6.7a78.576,78.576,0,0,1,10.648-13.3l6.6-6.4-6,3.4c-10.648,6.1-20.7,14.4-27.144,22.4l-3.149,4-.15-14.5c-.15-14.4-.15-14.5-2.25-9s-6.9,28.8-8.848,42.8c-.6,4-1.35,7.1-1.8,6.9-.9-.7-4.5-38.5-5.849-61.7-1.2-21-1.95-21.7-6.149-5-1.65,6.8-2.549,20.2-3,47.5l-.75,37.9-2.7-6.9c-3.149-8.2-9.748-20.5-13.647-25.7-3.9-5.1-3.749-5.9,3.3-11.2,7.2-5.5,6.449-5.9-2.1-1.1A42.634,42.634,0,0,1,94.48-360c-.6,0-3.6-2.7-6.6-6-5.7-6.1-27.594-22.3-32.693-24.1-1.65-.6,0,1.5,3.9,4.8a137.745,137.745,0,0,1,13.347,14.8l6.749,8.9-9.748,7.1a142.488,142.488,0,0,0-15.147,12.7c-3,3.2-5.849,5.8-6.3,5.8s-.9-1-1.05-2.3c-1.5-17.3-2.4-21.7-3.9-20.8-1.35.7-1.8-.5-1.95-4.2,0-2.9-1.05-6.5-2.4-8.1-2.1-2.6-2.25-.7-3.149,25.1-.6,15.3-1.5,29.4-2.1,31.3-.9,3.3-1.05,3.4-2.1,1a19.833,19.833,0,0,1-1.2-6.5,81.643,81.643,0,0,0-3-13,132.547,132.547,0,0,1-3.9-22c-1.8-23.6-7.948-46.1-8.1-30-.15,10.9-1.95,24.5-3,24.1-.6-.3-1.05,7.3-1.05,16.7a246.5,246.5,0,0,1-1.2,25.2l-1.35,8-2.7-7C.3-333.3.15-332.7.15-265.3L0-200H5.249c3.6,0,5.249.5,5.249,1.5,0,1.3,107.077,1.5,954.543,1.5h954.544l-.15-77.8-.15-77.7-3.9,8.7c-2.1,4.8-4.049,8.6-4.349,8.4-.9-.5-4.649-40.7-5.849-62.1-1.2-20.6-1.95-21-6-2.5-1.65,7.2-2.549,22-3.149,47.5-.75,32.9-1.05,36.4-2.849,32-1.05-2.8-2.1-11-2.25-18.3s-.75-13-1.5-12.5c-.6.4-2.1,3.2-3.3,6.1l-1.95,5.3-4.2-6.4c-5.549-8.7-19.5-22.9-29.843-30.3-4.649-3.4-8.548-6.7-8.548-7.3,0-2.2,12.3-17.6,19.2-24.1l7.048-6.5L1859.9-410c-23.845,13.5-41.841,34.1-53.688,62l-3.6,8.5.6-14.5c1.35-30.9-3.449-83.3-7.948-86.3C1794.662-440.7,1793.612-432.2,1793.162-421.3ZM964.891-385.6c-.15,1.2-.45,7-.45,12.9-.15,7.9-.6,10.8-1.95,10.5-4.349-1-4.649-3.6-1.95-16.2,1.65-7,3.3-11.9,3.749-11A6.665,6.665,0,0,1,964.891-385.6Zm697.5,3.5c-1.2,3.6-2.4,4.3-5.1,3.2-1.65-.7-1.2-1.5,1.5-4C1662.84-386.5,1663.74-386.3,1662.39-382.1Zm102.728,8.2c0,.4-1.05.9-2.249,1.3-1.8.4-2.25-.6-2.1-6.2l.15-6.7,1.95,5.5C1764.068-377,1764.968-374.2,1765.118-373.9Zm-188.959-7.5c0,.8-.6,1.2-1.5.9-.75-.3-1.5-1-1.5-1.6,0-.5.75-.9,1.5-.9A1.5,1.5,0,0,1,1576.159-381.4ZM352.274-370.8c.15,5-2.4,10.1-4.5,9.2-.75-.3-1.35-4-1.35-8.3C346.425-382.2,351.824-383.1,352.274-370.8Zm902.955-7.1c0,.6-.6.7-1.5.4-.75-.3-1.5-1.1-1.5-1.6,0-.6.75-.7,1.5-.4A2.125,2.125,0,0,1,1255.229-377.9Zm590.272,3.1c8.4,9.3,14.4,19.6,12.747,21.6-2.25,2.8-6.149,17.9-6.149,23.9,0,4.6-.3,5.4-2.1,4.4-1.65-.9-2.25-.9-2.7.1-.3.6-2.849-1.3-5.4-4.4a39.853,39.853,0,0,0-10.048-8.2c-6.3-3.3-6.448-4.2-1.65-19.6,4.049-13.3,8.1-23,9.6-23C1840.4-380,1842.951-377.6,1845.5-374.8Zm-272.941,8.3c.75,4.9.45,6.3-1.5,7.4a5.169,5.169,0,0,0-2.549,3.5c-.3,6-2.25,5.7-6.3-1.2a54.318,54.318,0,0,1-4.049-7.7c0-.5,2.55-3.8,5.549-7.4l5.549-6.6,1.2,3A55.127,55.127,0,0,1,1572.56-366.5Zm87.281-10c.3.2-.15,2.8-1.05,5.8a144.826,144.826,0,0,0-2.549,15.6c-.6,5.6-1.5,10.1-1.95,10.1s-2.1-1.9-3.449-4.2c-1.5-2.3-3-3.9-3.3-3.7-.45.2-.15,6.1.6,12.9.75,6.9,1.5,15.6,1.5,19.4v6.9l-3.9-3.9c-7.648-7.4-9-8.4-10.948-7.1-.9.6-1.65.7-1.65.1s.9-1.6,1.95-2.3c1.5-1,1.35-1.1-.75-.6-4.2,1.1-4.8-1.7-2.7-12.3,2.1-10.8,6-18.5,15.147-30.3,5.4-6.9,6.6-7.9,9.448-7.3C1657.891-377,1659.541-376.6,1659.841-376.5ZM920.8-372.1c2.1.9,5.4,3.9,7.2,6.6,3.449,4.7,3.449,4.9.9,8.6-1.35,2.2-3.149,3.9-3.9,3.9a1.443,1.443,0,0,0-1.2,1.5c0,.9-2.25,0-5.7-2.3-5.7-3.8-5.849-4.1-6.6-12.6-.9-8.5-.75-8.7,2.4-8.1A42.359,42.359,0,0,1,920.8-372.1Zm720.444.6c-1.65,1.6-3,2.2-3.6,1.5s-3.3,1.1-6.749,4.4a71.986,71.986,0,0,1-6.149,5.6c-.6,0,3.9-6.5,6.749-9.8,1.65-2.1,10.648-5.6,11.847-4.7C1643.644-374.3,1642.745-373,1641.245-371.5Zm34.043,2.1c4.5,6.8,9.9,25.1,11.847,40.1,1.95,15.7.9,19.2-5.549,19.3-2.249,0-2.549-19.1-.75-31.7.9-5.8.75-7-.75-6.1-1.5.8-1.95.4-1.95-1.8l-.15-2.9-1.8,2.9c-1.8,2.6-2.1,1.7-4.049-10.8-1.2-7.5-1.65-13.6-1.05-13.6S1673.638-371.9,1675.288-369.4ZM220.3-344c-.15,18.7-1.05,21.8-3.749,13.5-4.8-14.5-6.6-25.1-5.549-33l.9-8,4.349,6C220.452-359.7,220.452-359.1,220.3-344Zm557.879-19.3-3.6,3.8-.45-4.4c-.3-2.4-.15-5,.45-5.9.75-1.3,1.35-1.3,4.049.5l3.149,2.1Zm174.112.5c0,3.2-.6,5.8-1.35,5.8-1.5,0-3-9.4-1.95-12.3C950.344-372.8,952.294-368.8,952.294-362.8Zm302.935,1.7a8.953,8.953,0,0,1-1.5,5.1c-1.05,1.1-1.5.6-1.5-2.1a46.472,46.472,0,0,0-.9-8.5l-.75-4.9,2.25,3.4A13.849,13.849,0,0,1,1255.229-361.1Zm511.989-.8c-.9,1.1-6.6,1.8-6.6.8a21.154,21.154,0,0,1,2.55-4.5l2.7-3.6,1.05,3.3C1767.368-364.1,1767.668-362.3,1767.218-361.9ZM705.3-359.3a65.1,65.1,0,0,1-.75,25.9l-1.8,8.2-3.449-1.5c-1.95-.8-3.449-2.2-3.449-3a.845.845,0,0,0-1.35-.8,2.367,2.367,0,0,1-2.4-.5,13.82,13.82,0,0,0-4.2-2.1c-3.149-1.2-3.149-1.1-.6.8a7.4,7.4,0,0,1,2.549,5c0,3.8-4.349,12.5-6,11.8s-.75-17.4,1.35-24a54.6,54.6,0,0,1,14.247-23.2c1.65-1.8,3.6-3.3,4.049-3.3S704.848-363,705.3-359.3ZM328.429-364c0,.5.9,1,1.95,1,3.449,0,6.6,3.3,7.5,7.8.6,3.6.45,4.1-1.35,3.1-1.65-.9-1.95.2-1.2,7.2.6,5.9.45,8-.75,6.9-1.05-1.1-2.1.1-4.2,5l-2.7,6.5-.9-11c-1.5-17.8-1.5-27.5.15-27.5C327.829-365,328.429-364.6,328.429-364Zm1050.223,10.2a78.113,78.113,0,0,1-.3,17.8l-1.2,8.5-.3-12.1a138.295,138.295,0,0,0-1.2-18.4c-.6-4.2-.45-6.1.6-5.7C1377.152-363.3,1378.2-358.9,1378.652-353.8Zm94.03-3.9c1.8,4.5,1.8,5-1.2,7l-3.3,2.1v-7.9C1468.182-365,1469.532-365.4,1472.681-357.7Zm-1209.788,1c-2.849,1.1-4.949-.7-4.8-4.3v-2.5l3.6,3C264.843-357.9,264.993-357.4,262.893-356.7Zm701.7,11.5c.3,7.8.15,14.2-.3,14.2-3.3,0-6-19.2-3-20.5,2.4-1,1.8-2.5-.75-1.9-1.8.5-2.25-.4-2.25-4.7,0-5.3,0-5.3,2.849-3.4C963.692-359.7,964.141-357.7,964.591-345.2Zm-804.726-8.2c-.6,1.3-1.65,2.4-2.7,2.4-1.8,0-.6-8.2,1.35-10.3C160.015-362.8,161.065-356.5,159.865-353.4Zm152.817,11.3-1.05,6.4-3.3-3.9c-7.648-9.2-7.8-9.6-1.35-16l5.7-5.7.45,6.4A73.108,73.108,0,0,1,312.682-342.1Zm34.193-16.4c-1.05,2.1-1.95,1.9-1.95-.6,0-1.1.6-1.8,1.5-1.4A1.247,1.247,0,0,1,346.875-358.5Zm733.641,5.9a57.488,57.488,0,0,0-6.9,12.7c-1.05,3.2-2.55,5.9-3.149,5.9s-1.2-2.3-1.2-5.1c0-4.3,1.05-6.1,7.648-13,4.2-4.4,7.948-7.8,8.248-7.7C1085.315-359.6,1083.366-356.4,1080.516-352.6Zm687,14.5c-4.5,12.8-5.249,12.4-5.249-3.3-.15-12.9.15-15.2,2.55-16.9,2.4-1.9,2.549-1.7,3.9,5.3C1769.767-347.1,1769.617-344.2,1767.518-338.1Zm-454.4-17.6c3.149,3.3,3.149,3.3.45,10.7-1.65,4-3.149,7.6-3.6,7.8-.45.3-.75-2.8-.75-6.9a68.092,68.092,0,0,0-.9-11.2C1307.117-359.9,1308.917-360,1313.116-355.7ZM83.982-351.2a7.454,7.454,0,0,1-1.65,3.4c-1.35,1.6-1.95,1.8-3,.7-.9-1.1-1.35-1-2.25.4-.75,1.4-1.35,1.5-3,.6-3.149-1.7-2.549-4,1.95-8.4l4.049-3.9,1.8,2.9A19.866,19.866,0,0,1,83.982-351.2ZM461.9-348.4c-.75,4.9-1.5,11.1-1.65,13.9l-.15,5-3.6-7.8-3.749-7.8,4.8-6.5c2.7-3.5,5.1-6.3,5.4-6.1S462.8-353.3,461.9-348.4Zm208.455-8.7a1.993,1.993,0,0,1-1.5,1.6,1.016,1.016,0,0,1-1.5-.9,1.594,1.594,0,0,1,1.5-1.6C669.755-358,670.355-357.6,670.355-357.1Zm119.974,6.8c1.5,4.5,1.5,5.5-.45,6.8-1.8,1.1-2.549,1.2-3,.2-.45-.6-1.65.4-2.7,2.3l-2.1,3.5-.75-4c-.9-4.4,4.349-17.5,6.149-15.3A54.236,54.236,0,0,1,790.329-350.3ZM275.04-346.7l5.4,6.9-3.9,4.1c-2.1,2.3-5.249,6.2-7.049,8.7l-3.149,4.5-1.8-10.5c-.9-5.8-2.25-13-2.849-16.2-.9-5-.75-5.7,1.65-6C267.242-355.8,268.742-354.6,275.04-346.7Zm117.875,2.8c-.75,6.3-1.65,13.4-1.95,15.9l-.3,4.5-4.349-5.5a93.572,93.572,0,0,0-7.348-8.3c-2.549-2.6-2.7-3.3-1.05-7,2.549-5.9,5.549-8.7,10.948-10.2,2.7-.7,4.949-1.2,5.249-1A91.754,91.754,0,0,1,392.915-343.9Zm189.709-1.7c2.1,4.3,3.6,8,3.3,8.3-.3.2-2.4-1.5-4.649-3.7-2.1-2.2-4.2-4-4.649-4-.3,0,1.65,3.2,4.5,7.1,4.349,6.1,4.949,7.8,4.2,12.2a16.041,16.041,0,0,1-5.1,9.4c-2.549,2.3-6.149,6.2-8.248,8.5l-3.749,4.3.6-15a130.922,130.922,0,0,1,6.449-35.4C576.325-357.3,577.825-355.6,582.624-345.6Zm564.628-5.8c-2.7,2.1-3.6,1-1.35-1.8,1.2-1.4,2.1-1.8,2.549-1C1148.751-353.5,1148.152-352.3,1147.252-351.4Zm-224.5,4.1c-.6,1-1.8.4-4.349-2.1-4.8-4.7-4.5-5.6.75-2.2C921.7-350,923.2-348.1,922.75-347.3Zm651.459-3c-.45,1-.75.4-.75-1.2,0-1.7.3-2.4.75-1.8A5.1,5.1,0,0,1,1574.21-350.3ZM287.788-348.7c1.05,1,1.2,1.7.3,2.1-.75.4-2.1-.2-3-1.1-1.2-1.4-1.95-1.5-2.849-.5-.9.9-1.8.6-3-1.3a10.972,10.972,0,0,1-1.8-3.1C277.44-353.4,285.838-350.2,287.788-348.7Zm806.226,15.6c-1.05,13-1.2,13.4-3.3,10-2.4-3.6-1.95-8.8,1.5-22.9C1094.613-356.1,1095.363-350.9,1094.013-333.1Zm38.842-18.4c.45.9,0,1.5-1.35,1.5-1.2,0-2.25-.7-2.25-1.5a1.446,1.446,0,0,1,1.35-1.5A3.371,3.371,0,0,1,1132.855-351.5Zm736.341,18c5.1,12.6,10.048,32.9,9,36.5-1.05,3-3.6,4.2-3.6,1.6,0-.8-3.149-5.6-6.9-10.7l-7.048-9.3-.6-19-.45-19.1,3,5.5A151.111,151.111,0,0,1,1869.2-333.5Zm-860.814-1.7-1.2,14.7-1.8-6.4a29.186,29.186,0,0,1-.45-13.5C1008.382-357.7,1010.031-355.1,1008.382-335.2ZM731.092-347c1.35,1.7,1.95,3.6,1.35,4.2-.75.7-1.8-.1-3-2.3C726.293-350.9,727.193-352,731.092-347Zm142.619,18.9c.75,3.1.15,4-3.749,6.5l-4.5,2.9-.6-2.4c-4.049-14.5-4.8-20.9-2.7-25l2.1-4.3,4.349,9.4A133.715,133.715,0,0,1,873.711-328.1Zm466.849-19.3c2.849,2.4,9.148,14,9.148,16.7,0,.6-2.25-1.1-4.949-3.8-2.7-2.8-6.448-6.4-8.248-8-2.1-2-3-3.8-2.4-5.3C1335.311-350.7,1336.811-350.6,1340.56-347.4ZM246.547-334.6c-1.2,16.4-4.2,17.3-4.349,1.3,0-9.2,2.25-17,4.649-15.5C247.147-348.5,247.147-342.1,246.547-334.6Zm424.408-9.2c-1.35,7.1-3.449,9.6-3.6,4.1,0-3.7,2.4-9.3,4.049-9.3C671.7-349,671.555-346.6,670.955-343.8Zm807.575,5.1c1.35,6.5,1.35,8.3-.6,10.6a54.2,54.2,0,0,0-4.8,9.7l-2.7,6.9-.9-7.5c-2.1-16.3-1.65-23,1.8-26.7C1475.381-350,1476.131-349.2,1478.53-338.7Zm73.484,2.5c1.95,12.5,2.1,22.5.3,23.7a57.506,57.506,0,0,0-6.149,7.3l-4.8,6.4-3.6-3.6c-1.95-1.9-3.6-4.7-3.6-6.1,0-7.1,13.2-41.6,15.147-39.3C1549.915-347.1,1551.115-341.9,1552.014-336.2Zm-164.664-2.1c-1.2,1.4-1.5.4-1.5-4.2l.15-6,1.5,4.2C1388.4-341.5,1388.4-339.4,1387.35-338.3ZM154.017-344.8c-.45.8-.9.5-.9-.6-.15-1.1.3-1.7.75-1.3A1.462,1.462,0,0,1,154.017-344.8Zm1074.218,1.5c0,1.8-2.549,1.6-3.6-.3-1.2-2.2.6-4,2.25-2.3A5.011,5.011,0,0,1,1228.234-343.3Zm-877.76,1c-.45,1-.75.4-.75-1.2,0-1.7.3-2.4.75-1.8A5.1,5.1,0,0,1,350.474-342.3ZM90.58-331.9c1.95,6.8,4.049,14.6,4.5,17.4l.9,4.9-5.849-3.8-5.849-3.8-.6-11.6c-.45-6.8-.15-12.7.75-14,.9-1.2,1.8-2,2.1-1.8S88.631-338.7,90.58-331.9Zm851.066-5.6c0,2.8,0,2.9-2.1,1.1-2.4-2.1-3-6.8-1.2-8C939.7-345.3,941.5-341.6,941.646-337.5Zm-878.51,4.7c-3.449,4-6.149,7-6.149,6.6,0-1.2,7.048-13.4,9.3-16l1.95-2.3.45,2.2C68.985-341.1,66.436-336.9,63.136-332.8ZM1188.943-326l-.15,6.5-1.05-5a60.216,60.216,0,0,1-1.2-12.5l.15-7.5,1.05,6A84.081,84.081,0,0,1,1188.943-326ZM793.328-341.6a2.36,2.36,0,0,1-1.5,2.1c-.75.3-1.5-.3-1.5-1.4,0-1.2.75-2.1,1.5-2.1A1.394,1.394,0,0,1,793.328-341.6Zm432.057,1.3c4.349,5.1,4.8,13.4.9,20l-3.3,5.8-.9-6.5c-1.5-9.6-1.5-22-.15-22C1222.536-343,1224.185-341.8,1225.385-340.3Zm-772.483,6v7.7l-3.149-2.1c-3.149-2-3.149-2.2-.75-7.7,1.35-3.1,2.849-5.6,3.149-5.6C452.6-342,452.9-338.5,452.9-334.3Zm1138.4,2.6c-1.2.8-1.65-.1-1.65-2.9,0-5.3,2.1-6.7,2.7-1.9C1592.656-334.4,1592.206-332.3,1591.306-331.7Zm116.825-4.8c0,1.9-.6,3.5-1.5,3.5-1.65,0-1.949-3-.6-5.4C1707.531-340.9,1708.13-340.3,1708.13-336.5Zm129.272,10c12,14.7,11.7,13.3,12.147,45.4.15,15.9.15,28.9.15,28.8a79.14,79.14,0,0,1-3.449-8.2A139.056,139.056,0,0,0,1826.6-293c-7.048-8.1-7.349-11.4-3.749-31.5,1.2-6.6,2.25-12.5,2.25-13C1825.255-339.1,1832.154-332.9,1837.4-326.5ZM551.431-334.8c-.45.8-.9.5-.9-.6-.15-1.1.3-1.7.75-1.3A1.462,1.462,0,0,1,551.431-334.8ZM1111.11-331c-.15,3.2-.3,3.3-1.35,1a20.668,20.668,0,0,1-1.35-5c-.15-2,.15-2.2,1.35-1C1110.51-335.2,1111.11-332.9,1111.11-331Zm27.144,6.3-1.8,4.1-2.1-2.5c-1.95-2.5-1.2-6.5,1.95-11.9C1138.254-338.4,1140.2-328.8,1138.254-324.7Zm609.018,10.2c-.9,9.3-2.1,19-2.849,21.5l-1.2,4.5-1.05-4.9c-2.1-9.6-1.2-22.8,2.25-32.9C1748.622-338.4,1749.072-336.3,1747.272-314.5Zm-717.295-9.6,4.8,9.9-5.4,3.6c-3,2-5.549,3.6-5.549,3.6-.15,0-.3-6.1-.3-13.5s.3-13.5.75-13.5S1027.278-329.6,1029.977-324.1Zm302.035-4.7c-1.35.9-1.8.4-1.65-2.3,0-3.2.15-3.3,1.65-1.1C1333.212-330.5,1333.212-329.6,1332.012-328.8ZM793.328-320c0,8.9-.6,12.9-2.25,15-1.35,1.7-2.7,3-3.149,3-.75,0,.45-18.7,1.8-25.8C791.229-336.2,793.328-331.8,793.328-320Zm-504.791,1.5c-1.05,1.1-2.25,4.5-2.849,7.6a19.346,19.346,0,0,1-5.4,10c-2.4,2.4-4.349,3.8-4.349,3.1,0-2.2,4.5-16.5,6.9-21.7,3.9-8.3,3.749-8.3,5.849-4.5C290.037-321.2,290.037-320.1,288.538-318.5Zm164.364.7c0,3.7-.15,3.8-5.249,3.8-6,0-6.149-.3-3.6-8.2l1.8-5.2,3.449,2.9C451.7-322.5,452.9-320.2,452.9-317.8Zm886.758-.5c2.1,4.9,4.649,11.6,5.7,15.1l1.8,6.3-4.8,3.3c-2.549,1.7-4.649,3.5-4.649,3.9s-1.2,1.9-2.55,3.4l-2.549,2.6-1.2-2.9c-.6-1.6-1.65-9.7-2.1-17.9-.9-13.2-.75-15.5,1.65-18.8,1.35-2,3.149-3.7,3.749-3.7S1337.561-323.1,1339.66-318.3ZM535.384-320c-.6,3-1.35,4.4-1.5,3-.45-3.2.15-7.3,1.05-8.3C536.434-327,536.584-325.4,535.384-320Zm295.736,3.7c-1.35,2.4-1.5,1.8-1.5-3.7,0-6.1.15-6.3,1.5-2.8A7.546,7.546,0,0,1,831.12-316.3Zm-129.272-1.8c-.15,2.2-.45,1.9-2.25-1.4-2.7-5-2.7-5.5,0-3.1A7.2,7.2,0,0,1,701.848-318.1Zm151.317,1.8c-.15,5.6-.3,6.3-1.5,3.8-1.2-2.6-.3-10.5,1.05-10.5C853.015-323,853.315-320,853.165-316.3Zm24.745.2,2.25,6.3-6.3-.6-6.3-.6,5.249,1.6c2.849.9,5.4,1.7,5.7,1.9.6.3-6.149,9.1-8.7,11.5-1.2,1.1-1.35.6-.6-2.2.45-2.2,0-5.8-1.65-9.3l-2.4-5.7,4.8-4.9c2.549-2.7,4.949-4.8,5.249-4.6C875.511-322.6,876.71-319.6,877.91-316.1ZM75.284-308.5c-.15,4.9-.6,15.5-1.35,23.5l-1.2,14.5-5.1-5.4c-4.5-4.5-5.1-6.1-4.8-10.5.45-7,2.7-16.4,6.449-27.1,2.7-7.8,3.3-8.7,4.5-6.5C74.684-318.6,75.284-313.5,75.284-308.5Zm1377.9,2c-.75,13.9-1.5,14.4-4.2,3-1.05-4.5-.9-7,.75-10.5,1.2-2.5,2.55-5.1,2.849-5.9C1453.936-322.6,1453.936-320.3,1453.186-306.5Zm190.159,9.6,4.349,10.3-4.2,6.4a99.736,99.736,0,0,0-7.648,14.1l-3.449,7.6-1.8-5.5c-2.25-6.4-4.5-52.9-2.7-55.6C1629.547-322.3,1637.8-310.2,1643.344-296.9Zm-587.573-20.6c0,1.4-.6,2.5-1.35,2.5-.6,0-.9-1.1-.45-2.5.3-1.4.9-2.5,1.2-2.5S1055.771-318.9,1055.771-317.5ZM90.73-306.3c2.849,4.1,3.3,5.9,2.25,9-.75,2.1-2.1,9-3,15.3-1.05,6.3-2.4,12.1-3,12.8-1.05,1.5-2.549-10.3-3.9-32.7-.75-12.8-.6-13.5,1.65-11.6A41.635,41.635,0,0,1,90.73-306.3Zm82.932,1.3-.15,5.5-1.05-5a38.253,38.253,0,0,1-1.2-8c0-2.9,0-2.9,1.2-.5A25.922,25.922,0,0,1,173.662-305Zm881.659-6.8c-.45.8-.9.5-.9-.6-.15-1.1.3-1.7.75-1.3A1.462,1.462,0,0,1,1055.322-311.8Zm-761.835,2c-.45.7-.75.2-.75-1.2s.3-1.9.75-1.3A3.583,3.583,0,0,1,293.487-309.8Zm81.432,16.5c0,1.7-1.65,5.5-3.749,8.5l-3.749,5.3v-13.6c0-7.5.45-15.1,1.05-17,.9-3,1.2-2.4,3.6,5.1A74.488,74.488,0,0,1,374.919-293.3Zm74.234-16.5c3.749,2.2,3.749,2.5,2.849,10.3l-1.05,8-3.3-7a61.2,61.2,0,0,0-5.1-9.3C439.105-312.1,443-313.3,449.153-309.8Zm1236.333,5a66.146,66.146,0,0,0-1.35,10.7c0,3.8-.6,6.1-1.35,5.5-1.5-1.1-3.3-18.9-2.1-19.8a9.507,9.507,0,0,1,3.449-.6C1686.385-309,1686.535-308.4,1685.485-304.8ZM510.939-303.3c-.45,1-.75.4-.75-1.2,0-1.7.3-2.4.75-1.8A5.1,5.1,0,0,1,510.939-303.3Zm-214,8.1c0,4.9-.45,13.8-1.05,19.8l-1.2,10.9-.9-6.5c-1.35-8.6-1.65-29.4-.45-31.4C295.586-306.2,296.936-303.4,296.936-295.2ZM585.323-300c-.45,1.1-1.05,2-1.35,2s-.6-.9-.6-2,.6-2,1.35-2S585.773-301.1,585.323-300Zm693.45,14.3c-.3,2.3-.45.1-.45-4.8,0-5,.15-6.8.45-4.2A45.1,45.1,0,0,1,1278.773-285.7Zm-783.581-1.2-1.2,3.3-1.95-4.6c-1.8-4.1-1.65-4.9.9-7.4l2.7-2.8.45,4.1A16.986,16.986,0,0,1,495.193-286.9Zm88.781-6.5c1.2,2,1.2,9.8-.15,21.4l-.9,9.3-3.449-9.4c-3.3-9.1-3.3-9.6-1.05-16.2C580.824-295,582.324-296.3,583.974-293.4ZM1349.408-282l.15,4.5-2.4-5.8c-1.2-3.2-1.65-6.6-1.05-7.5.9-1.4,1.35-1.1,2.1,1.3A26.155,26.155,0,0,1,1349.408-282Zm-460.55,4.6,1.65,7.5-5.1,7.2-5.249,7.2.75-7.2c.9-9.5,4.2-23.4,5.249-22.7C886.608-285.1,887.808-281.5,888.858-277.4Zm151.767,7.6c-2.7,4.5-3.149,2.7-1.05-5.3l1.95-7.4.45,4.9C1042.275-274.9,1041.675-271.4,1040.625-269.8Zm299.935-4.5c.15,1.7-.75,2.3-2.7,2.3-4.649,0-5.249-1.8-2.25-6.3l2.849-4.1.9,2.9A28.991,28.991,0,0,1,1340.56-274.3Zm-1060.121,4c0,4.7-.45,6.4-1.65,5.6a4.3,4.3,0,0,1-1.65-2.9c-.3-2.4,1.65-9.4,2.549-9.4C280.139-277,280.439-274,280.439-270.3Zm614.417,34c-.45,1-.75.2-.75-1.7s.3-2.7.75-1.8A6.917,6.917,0,0,1,894.856-236.3Z" fill="#1c6758"/>
  </g>
</svg>
